<svg width="8616" height="8616" xmlns="http://www.w3.org/2000/svg">
 <defs>
  <style type="text/css">
   <![CDATA[
    .str0 {stroke:#a7d7c5;stroke-width:150}
    .fil2 {fill:none}
    .fil1 {fill:#a7d7c5}
    .fil0 {fill:#007770}
   ]]>
  </style>
 </defs>
 <g>
  <title>background</title>
  <rect fill="none" id="canvas_background" height="8618" width="8618" y="-1" x="-1"/>
 </g>
 <g>
  <title>Layer 1</title>
  <g id="Capa_x0020_1">
   <metadata transform="translate(0,-31) translate(656.5,0) translate(0,6) translate(0,6) translate(0,6) translate(0,3) translate(0,-3) translate(0,-3) translate(0,-3) translate(0,-3) translate(0,-3) translate(0,-3) translate(0,-3) translate(0,-3) translate(0,-3) translate(0,-6) translate(0,-3) translate(0,-3) translate(0,-3) translate(0,-3) translate(0,-3) translate(0,-3) translate(0,-6) translate(0,-3) translate(0,-3) translate(0,-3) translate(0,-3) translate(0,-9) translate(0,-6) translate(0,-3) translate(0,-3) translate(0,-3) translate(0,-11) translate(0,-17) translate(0,-11) translate(0,-17) translate(0,-6) translate(0,-3) translate(0,-34) translate(0,-26) translate(0,-26) translate(0,-6) translate(-3,0) translate(-3,0) translate(3,0) translate(3,0) translate(9,0) translate(3,0) translate(3,0) translate(3,0) translate(-3,0) translate(-3,0) translate(-3,0) translate(-3,0) translate(-3,0) translate(-11,0) translate(-3,0) translate(-6,0) translate(-3,0) translate(-3,0) translate(-3,0) translate(-3,0) translate(-3,0) translate(-3,0) translate(-3,0) translate(-3,0) translate(-3,0) translate(-6,0) translate(-3,0) translate(-3,0) translate(-6,0) translate(-14,0) translate(-3,0) translate(-3,0) translate(-3,0) translate(-31,0) translate(-6,0) translate(-3,0) translate(-3,0) translate(-26,0) translate(-9,0) translate(0,-9) translate(0,3) translate(0,6) translate(0,6) translate(0,6) translate(0,6) translate(0,14) translate(0,9) translate(0,3) translate(0,6) translate(0,3) translate(0,6) translate(0,6) translate(0,6) translate(0,6) translate(0,3) translate(0,3) translate(0,6) translate(0,3) translate(0,3) translate(0,6) translate(0,6) translate(0,6) translate(0,3) translate(0,3) translate(0,6) translate(0,9) translate(0,6) translate(0,3) translate(0,3) translate(0,9) translate(0,6) translate(0,6) translate(0,9) translate(0,6) translate(0,9) translate(0,9) translate(0,14) translate(0,6) translate(0,3) translate(0,6) translate(3,0) translate(6,0) translate(3,0) translate(3,0) translate(6,0) translate(6,0) translate(9,0) translate(3,0) translate(-3,0) translate(-3,0) translate(-3,0) translate(-3,0) translate(-3,0) translate(-3,0) translate(-3,0) translate(-3,0) translate(-6,0) translate(-3,0) translate(-3,0) translate(-3,0) translate(-3,0) translate(-3,0) translate(-3,0) translate(-3,0) translate(-6,0) translate(-9,0) translate(-3,0) translate(-3,0) translate(-6,0) translate(-23,0) translate(-6,0) translate(11,0) translate(11,0) translate(9,0) translate(6,0) translate(9,0) translate(3,0) translate(9,0) translate(3,0) translate(11,0) translate(6,0) translate(9,0) translate(6,0) translate(14,0) translate(29,0) translate(11,0) translate(14,0) translate(11,0) translate(6,0) translate(9,0) translate(9,0) translate(6,0) translate(6,0) translate(14,0) translate(9,0) translate(-12184,0) translate(-3,0) translate(-11,0) translate(-9,0) translate(-9,0) translate(-11,0) translate(-11,0) translate(-20,0) translate(-17,0) translate(-20,0) translate(-23,0) translate(-49,0) translate(-29,0) translate(-86,0) translate(-63,0) translate(-3,0) translate(0,-1718) translate(-17,0) translate(-49,0) translate(-86,0) translate(-46,0) translate(-49,0) translate(-114,0) translate(-66,0) translate(-51,0) translate(-34,0) translate(-34,0) translate(-37,0) translate(-54,0) translate(-63,0) translate(-69,0) translate(-54,0) translate(-3,0) translate(0,-17) translate(0,-9) translate(0,-37) translate(0,-43) translate(0,-43) translate(0,-43) translate(0,-40) translate(0,-46) translate(0,-46) translate(0,-46) translate(0,-51) translate(0,-60) translate(0,-57) translate(0,-49) translate(0,-34) translate(0,-11) translate(13128,0) translate(0,-31) translate(0,-31) translate(0,-31) translate(0,-46) translate(0,-54) translate(0,-49) translate(0,-46) translate(0,-40) translate(0,-29) translate(0,-34) translate(0,-40) translate(0,-51) translate(0,-51) translate(0,-43) translate(0,-43) translate(0,-26) translate(0,-54) translate(0,-51) translate(0,-29) translate(0,-11) translate(0,-6) translate(0,-31) translate(0,-54) translate(0,-46) translate(0,-34) translate(0,-43) translate(0,-49) translate(0,-57) translate(0,-40) translate(0,-34) translate(0,-29) translate(0,-23) translate(0,-26) translate(0,-20) translate(0,-43) translate(0,-94) translate(0,-100) translate(0,-120) translate(0,-49) translate(0,-6) translate(0,-9) translate(0,-6) translate(0,-9) translate(0,-34) translate(0,-60) translate(0,-63) translate(0,-57) translate(0,-49) translate(0,-120) translate(0,-69) translate(0,-74) translate(0,-34) translate(0,-31) translate(0,-34) translate(0,-71) translate(0,-60) translate(0,-86) translate(0,-86) translate(0,-34) translate(0,-11) translate(0,-6) translate(0,-3) translate(0,-6) translate(0,-9) translate(0,-14) translate(0,-26) translate(0,-40) translate(0,-37) translate(0,-71) translate(0,-57) translate(0,-66) translate(0,-49) translate(0,-9) translate(0,-97) translate(0,-97) translate(0,-80) translate(0,-66) translate(0,-66) translate(0,-63) translate(0,-46) translate(0,-46) translate(0,-46) translate(0,-46) translate(0,-51) translate(0,-66) translate(0,-69) translate(0,-66) translate(0,-49) translate(0,-60) translate(0,-43) translate(0,-54) translate(0,-71) translate(0,-43) translate(0,-43) translate(0,-60) translate(0,-31) translate(0,-3) translate(-6,0) translate(-3,0) translate(-3,0) translate(-9,0) translate(-3,0) translate(-9,0) translate(-3,0) translate(-3,0) translate(-9,0) translate(-3,0) translate(-6,0) translate(-6,0) translate(-6,0) translate(-3,0) translate(-3,0) translate(-9,0) translate(-9,0) translate(-3,0) translate(-3,0) translate(-9,0) translate(-9,0) translate(-6,0) translate(-6,0) translate(-3,0) translate(-11,0) translate(-6,0) translate(-9,0) translate(-9,0) translate(-11,0) translate(-3,0) translate(-6,0) translate(-14,0) translate(-3,0) translate(-9,0) translate(-9,0) translate(-14,0) translate(-6,0) translate(-3,0) translate(-3,0) translate(-17,0) translate(-17,0) translate(-6,0) translate(-6,0) translate(-9,0) translate(-11,0) translate(-17,0) translate(-9,0) translate(-3,0) translate(-9,0) translate(-11,0) translate(-3,0) translate(-11,0) translate(-17,0) translate(-3,0) translate(-3,0) translate(-6,0) translate(-6,0) translate(-17,0) translate(-11,0) translate(-11,0) translate(-17,0) translate(-20,0) translate(-26,0) translate(-26,0) translate(-31,0) translate(-37,0) translate(-31,0) translate(-34,0) translate(-23,0) translate(-20,0) translate(-14,0) translate(-14,0) translate(-17,0) translate(-14,0) translate(-23,0) translate(-17,0) translate(-9,0) translate(-20,0) translate(-34,0) translate(-17,0) translate(-14,0) translate(-6,0) translate(-20,0) translate(-20,0) translate(-14,0) translate(-9,0) translate(-17,0) translate(-11,0) translate(-9,0) translate(-6,0) translate(-6,0) translate(-11,0) translate(-17,0) translate(-17,0) translate(-31,0) translate(-37,0) translate(-34,0) translate(-14,0) translate(-20,0) translate(-14,0) translate(-9,0) translate(-40,0) translate(-43,0) translate(-43,0) translate(-34,0) translate(-46,0) translate(-20,0) translate(-23,0) translate(-60,0) translate(-49,0) translate(-49,0) translate(-49,0) translate(-31,0) translate(-20,0) translate(-14,0) translate(-17,0) translate(-14,0) translate(-17,0) translate(-9,0) translate(-17,0) translate(-23,0) translate(-26,0) translate(-43,0) translate(-46,0) translate(-37,0) translate(-29,0) translate(-26,0) translate(-14,0) translate(-11,0) translate(-17,0) translate(-9,0) translate(-14,0) translate(-3,0) translate(-3,0) translate(-3,0) translate(-3,0) translate(-6,0) translate(-6,0) translate(-9,0) translate(-17,0) translate(-11,0) translate(-14,0) translate(-11,0) translate(-6,0) translate(-6,0) translate(-9,0) translate(-6,0) translate(-14,0) translate(-3,0) translate(-3,0) translate(-3,0) translate(-3,0) translate(-17,0) translate(-31,0) translate(-11,0) translate(-3,0) translate(-6,0) translate(-11,0) translate(-20,0) translate(-14,0) translate(-26,0) translate(-49,0) translate(-23,0) translate(-20,0) translate(-31,0) translate(-23,0) translate(-29,0) translate(-17,0) translate(-11,0) translate(-20,0) translate(-11,0) translate(-11,0) translate(-9,0) translate(-11,0) translate(-11,0) translate(-20,0) translate(-20,0) translate(-46,0) translate(-46,0) translate(-51,0) translate(-46,0) translate(-46,0) translate(-49,0) translate(-37,0) translate(-23,0) translate(-20,0) translate(-14,0) translate(-23,0) translate(-46,0) translate(-34,0) translate(-40,0) translate(-31,0) translate(-43,0) translate(-40,0) translate(-17,0) translate(-9,0) translate(-3,0) translate(-3,0) translate(-14,0) translate(-6,0) translate(-11,0) translate(-14,0) translate(-6,0) translate(-9,0) translate(-17,0) translate(-9,0) translate(-6,0) translate(-9,0) translate(-6,0) translate(-17,0) translate(-6,0) translate(-6,0) translate(-6,0) translate(-6,0) translate(-6,0) translate(-6,0) translate(-3,0) translate(-6,0) translate(-6,0) translate(-6,0) translate(-3,0) translate(-3,0) translate(-3,0) translate(-6,0) translate(-6,0) translate(-6,0) translate(-3,0) translate(-17,0) translate(-3,0) " id="CorelCorpID_0Corel-Layer"/>
   <path id="svg_1" d="m4281.5,601c-477,0 -885,84 -1243,230c-401,164 -740,405 -1044,693c-613,581 -1069,1363 -1069,2440c0,1151 540,2020 1252,2599c581,472 1232,761 2170,761c544,0 1044,-165 1426,-336c0,0 490,-291 562,-338c133,-87 210,-154 259,-212c18,-22 69,-60 128,-122c545,-575 978,-1354 978,-2352c0,-924 -374,-1662 -861,-2228c-289,-335 -504,-511 -889,-704c-433,-217 -1052,-431 -1669,-431zm-466,334l0,172c0,182 -191,300 -354,218l-366,-183c227,-98 469,-167 720,-207l0,0zm-2562,3007c0,-444 97,-865 269,-1246c151,224 384,570 527,780c79,116 171,222 275,316l13,11c145,131 307,243 482,332c214,107 525,277 745,398c155,86 251,249 251,426l0,488c0,130 51,254 142,345c229,229 371,589 345,782l0,417c-1681,0 -3049,-1368 -3049,-3049zm3700,2978l265,-715c31,-83 50,-171 73,-257c16,-61 48,-117 94,-163c50,-51 113,-113 172,-172c134,-133 209,-314 209,-503c0,0 0,0 0,0c0,-123 -49,-241 -136,-329l-209,-208c-91,-92 -215,-143 -345,-143l-1018,0c-143,-72 -327,-488 -487,-488c-161,0 -319,-37 -463,-109l-169,-85c-61,-31 -100,-94 -100,-163c0,-78 50,-148 124,-173l476,-158c81,-27 172,-9 237,47l141,123c22,19 51,30 80,30l86,0c91,0 150,-96 109,-177l-238,-475c-8,-17 -13,-36 -13,-55c0,-33 14,-64 37,-87l152,-147c22,-23 53,-35 85,-35l137,0c32,0 63,-13 86,-36l122,-122c48,-47 48,-125 0,-172l-71,-72c-48,-47 -48,-124 0,-172l157,-158l72,-72c95,-95 95,-249 0,-345l-432,-431c39,-2 77,-6 116,-6c1192,0 2223,689 2725,1687l-198,99c-57,29 -105,72 -141,125l-299,448c-40,60 -61,130 -61,202c0,73 21,143 61,203l275,412c50,75 127,130 215,152l445,111c-164,1282 -1126,2317 -2371,2589l0,0z" class="fil0"/>
   <path id="svg_2" d="m2568.5,376c-169,0 -306,137 -306,305c0,169 137,306 306,306c168,0 305,-137 305,-306c0,-168 -137,-305 -305,-305zm0,509c-685,0 684,0 0,0zm0,-815c-338,0 -611,274 -611,611c0,246 85,315 548,985c30,44 95,44 125,0c463,-670 548,-739 548,-985c0,-337 -273,-611 -610,-611zm509,611c0,1877 0,-1741 0,0z" class="fil1"/>
   <path id="svg_3" d="m7278.5,1849c-168,0 -305,138 -305,306c0,168 137,305 305,305c169,0 306,-137 306,-305c0,-168 -137,-306 -306,-306zm0,510c-684,0 684,0 0,0zm0,-815c-337,0 -611,274 -611,611c0,246 86,315 548,985c31,44 96,44 126,0c462,-670 548,-739 548,-985c0,-337 -273,-611 -611,-611zm509,611c0,1877 0,-1742 0,0z" class="fil1"/>
   <g id="_1597683402880">
    <polygon id="svg_4" points="2488.5,3954 2513.5,3959 2288.5,5088 2262.5,5083 " class="fil1 str0"/>
    <path id="svg_5" d="m6704.5,3669l-4544,0l-90,-478c-23,-122 -129,-210 -253,-210l-918,0c-71,0 -129,58 -129,129l0,86c0,71 58,129 129,129l846,0l752,4009c-111,122 -179,285 -179,463c0,380 308,688 688,688c380,0 688,-308 688,-688c0,0 0,-1 0,-1c0,-120 -32,-239 -92,-343l1560,0c-60,104 -92,223 -92,343c0,0 0,1 0,1c0,380 308,688 688,688c380,0 688,-308 688,-688c0,-193 -80,-368 -209,-493c-27,-110 -127,-195 -250,-195l-3182,0l-129,-688l3562,0c122,0 228,-86 253,-205l465,-2236c34,-161 -89,-311 -252,-311zm-3354,4128c0,190 -154,344 -344,344c-190,0 -344,-154 -344,-344c0,-190 154,-344 344,-344c190,0 344,154 344,344zm2408,344c-190,0 -344,-154 -344,-344c0,-190 154,-344 344,-344c190,0 344,154 344,344c0,190 -154,344 -344,344zm-3470,-4084l323,2020l3557,0l430,-2064l0,0l-4310,44z" class="fil1"/>
    <polygon id="svg_6" points="2775.5,3954 2814.5,3962 2467.5,5703 2427.5,5695 " class="fil1 str0"/>
    <polygon id="svg_7" points="3068.5,3954 3116.5,3964 2694.5,6077 2646.5,6067 " class="fil1 str0"/>
    <polygon id="svg_8" points="3370.5,3954 3417.5,3964 2995.5,6077 2947.5,6067 " class="fil1 str0"/>
    <polygon id="svg_9" points="3671.5,3954 3719.5,3964 3296.5,6077 3249.5,6067 " class="fil1 str0"/>
    <polygon id="svg_10" points="3972.5,3954 4020.5,3964 3598.5,6077 3550.5,6067 " class="fil1 str0"/>
    <polygon id="svg_11" points="4274.5,3954 4321.5,3964 3899.5,6077 3851.5,6067 " class="fil1 str0"/>
    <polygon id="svg_12" points="4575.5,3954 4623.5,3964 4200.5,6077 4153.5,6067 " class="fil1 str0"/>
    <polygon id="svg_13" points="4876.5,3954 4924.5,3964 4502.5,6077 4454.5,6067 " class="fil1 str0"/>
    <polygon id="svg_14" points="5178.5,3954 5225.5,3964 4803.5,6077 4755.5,6067 " class="fil1 str0"/>
    <polygon id="svg_15" points="5479.5,3954 5527.5,3964 5104.5,6077 5057.5,6067 " class="fil1 str0"/>
    <polygon id="svg_16" points="5780.5,3954 5828.5,3964 5406.5,6077 5358.5,6067 " class="fil1 str0"/>
    <polygon id="svg_17" points="6082.5,3954 6129.5,3964 5707.5,6077 5659.5,6067 " class="fil1 str0"/>
    <polygon id="svg_18" points="6383.5,3954 6431.5,3964 6008.5,6077 5961.5,6067 " class="fil1 str0"/>
    <rect id="svg_19" height="8678" width="7303" y="-31" x="656.5" class="fil2"/>
   </g>
  </g>
 </g>
</svg>