<svg width="7380" height="9176" xmlns="http://www.w3.org/2000/svg">
 <defs>
  <style type="text/css">
   <![CDATA[
    .str0 {stroke:#6B7D87;stroke-width:150}
    .fil2 {fill:none}
    .fil1 {fill:#6B7D87}
    .fil0 {fill:#330066}
   ]]>
  </style>
 </defs>
 <g>
  <title>background</title>
  <rect fill="none" id="canvas_background" height="9178" width="7382" y="-1" x="-1"/>
 </g>
 <g>
  <title>Layer 1</title>
  <g id="Capa_x0020_1">
   <metadata transform="translate(-1080.0001220703125,-640.0000610351562) translate(-2740.000244140625,-5800.00048828125) " id="CorelCorpID_0Corel-Layer"/>
   <path id="svg_1" d="m3663.999634,987.999451c-477,0 -885,84 -1243,230c-401,164 -740,405 -1044,693c-613,581 -1069,1363 -1069,2440c0,1151 540,2020 1252,2599c581,472 1232,761 2170,761c544,0 1044,-165 1426,-336c0,0 490,-291 562,-338c133,-87 210,-154 259,-212c18,-22 69,-60 128,-122c545,-575 978,-1354 978,-2352c0,-924 -374,-1662 -861,-2228c-289,-335 -504,-511 -889,-704c-433,-217 -1052,-431 -1669,-431zm-466,334l0,172c0,182 -191,300 -354,218l-366,-183c227,-98 469,-167 720,-207l0,0zm-2562,3007c0,-444 97,-865 269,-1246c151,224 384,570 527,780c79,116 171,222 275,316l13,11c145,131 307,243 482,332c214,107 525,277 745,398c155,86 251,249 251,426l0,488c0,130 51,254 142,345c229,229 371,589 345,782l0,417c-1681,0 -3049,-1368 -3049,-3049zm3700,2978l265,-715c31,-83 50,-171 73,-257c16,-61 48,-117 94,-163c50,-51 113,-113 172,-172c134,-133 209,-314 209,-503c0,0 0,0 0,0c0,-123 -49,-241 -136,-329l-209,-208c-91,-92 -215,-143 -345,-143l-1018,0c-143,-72 -327,-488 -487,-488c-161,0 -319,-37 -463,-109l-169,-85c-61,-31 -100,-94 -100,-163c0,-78 50,-148 124,-173l476,-158c81,-27 172,-9 237,47l141,123c22,19 51,30 80,30l86,0c91,0 150,-96 109,-177l-238,-475c-8,-17 -13,-36 -13,-55c0,-33 14,-64 37,-87l152,-147c22,-23 53,-35 85,-35l137,0c32,0 63,-13 86,-36l122,-122c48,-47 48,-125 0,-172l-71,-72c-48,-47 -48,-124 0,-172l157,-158l72,-72c95,-95 95,-249 0,-345l-432,-431c39,-2 77,-6 116,-6c1192,0 2223,689 2725,1687l-198,99c-57,29 -105,72 -141,125l-299,448c-40,60 -61,130 -61,202c0,73 21,143 61,203l275,412c50,75 127,130 215,152l445,111c-164,1282 -1126,2317 -2371,2589l0,0z" class="fil0"/>
   <path id="svg_2" d="m1950.999634,762.999451c-169,0 -306,137 -306,305c0,169 137,306 306,306c168,0 305,-137 305,-306c0,-168 -137,-305 -305,-305zm0,509c-685,0 684,0 0,0zm0,-815c-338,0 -611,274 -611,611c0,246 85,315 548,985c30,44 95,44 125,0c463,-670 548,-739 548,-985c0,-337 -273,-611 -610,-611zm509,611c0,1877 0,-1741 0,0z" class="fil1"/>
   <path id="svg_3" d="m6660.999634,2235.999451c-168,0 -305,138 -305,306c0,168 137,305 305,305c169,0 306,-137 306,-305c0,-168 -137,-306 -306,-306zm0,510c-684,0 684,0 0,0zm0,-815c-337,0 -611,274 -611,611c0,246 86,315 548,985c31,44 96,44 126,0c462,-670 548,-739 548,-985c0,-337 -273,-611 -611,-611zm509,611c0,1877 0,-1742 0,0z" class="fil1"/>
   <g id="_1597683402880">
    <polygon id="svg_4" points="1870.9996337890625,4340.999450683594 1895.9996337890625,4345.999450683594 1670.9996337890625,5474.999450683594 1644.9996337890625,5469.999450683594 " class="fil1 str0"/>
    <path id="svg_5" d="m6086.999634,4055.999451l-4544,0l-90,-478c-23,-122 -129,-210 -253,-210l-918,0c-71,0 -129,58 -129,129l0,86c0,71 58,129 129,129l846,0l752,4009c-111,122 -179,285 -179,463c0,380 308,688 688,688c380,0 688,-308 688,-688c0,0 0,-1 0,-1c0,-120 -32,-239 -92,-343l1560,0c-60,104 -92,223 -92,343c0,0 0,1 0,1c0,380 308,688 688,688c380,0 688,-308 688,-688c0,-193 -80,-368 -209,-493c-27,-110 -127,-195 -250,-195l-3182,0l-129,-688l3562,0c122,0 228,-86 253,-205l465,-2236c34,-161 -89,-311 -252,-311zm-3354,4128c0,190 -154,344 -344,344c-190,0 -344,-154 -344,-344c0,-190 154,-344 344,-344c190,0 344,154 344,344zm2408,344c-190,0 -344,-154 -344,-344c0,-190 154,-344 344,-344c190,0 344,154 344,344c0,190 -154,344 -344,344zm-3470,-4084l323,2020l3557,0l430,-2064l0,0l-4310,44z" class="fil1"/>
    <polygon id="svg_6" points="2157.9996337890625,4340.999450683594 2196.9996337890625,4348.999450683594 1849.9996337890625,6089.999450683594 1809.9996337890625,6081.999450683594 " class="fil1 str0"/>
    <polygon id="svg_7" points="2450.9996337890625,4340.999450683594 2498.9996337890625,4350.999450683594 2076.9996337890625,6463.999450683594 2028.9996337890625,6453.999450683594 " class="fil1 str0"/>
    <polygon id="svg_8" points="2752.9996337890625,4340.999450683594 2799.9996337890625,4350.999450683594 2377.9996337890625,6463.999450683594 2329.9996337890625,6453.999450683594 " class="fil1 str0"/>
    <polygon id="svg_9" points="3053.9998779296875,4340.999450683594 3101.9998779296875,4350.999450683594 2678.9996337890625,6463.999450683594 2631.9996337890625,6453.999450683594 " class="fil1 str0"/>
    <polygon id="svg_10" points="3354.9998779296875,4340.999450683594 3402.9998779296875,4350.999450683594 2980.9996337890625,6463.999450683594 2932.9996337890625,6453.999450683594 " class="fil1 str0"/>
    <polygon id="svg_11" points="3656.9998779296875,4340.999450683594 3703.9998779296875,4350.999450683594 3281.9998779296875,6463.999450683594 3233.9998779296875,6453.999450683594 " class="fil1 str0"/>
    <polygon id="svg_12" points="3957.9998779296875,4340.999450683594 4005.9998779296875,4350.999450683594 3582.9998779296875,6463.999450683594 3535.9998779296875,6453.999450683594 " class="fil1 str0"/>
    <polygon id="svg_13" points="4258.9998779296875,4340.999450683594 4306.9998779296875,4350.999450683594 3884.9998779296875,6463.999450683594 3836.9998779296875,6453.999450683594 " class="fil1 str0"/>
    <polygon id="svg_14" points="4560.9998779296875,4340.999450683594 4607.9998779296875,4350.999450683594 4185.9998779296875,6463.999450683594 4137.9998779296875,6453.999450683594 " class="fil1 str0"/>
    <polygon id="svg_15" points="4861.9998779296875,4340.999450683594 4909.9998779296875,4350.999450683594 4486.9998779296875,6463.999450683594 4439.9998779296875,6453.999450683594 " class="fil1 str0"/>
    <polygon id="svg_16" points="5162.9998779296875,4340.999450683594 5210.9998779296875,4350.999450683594 4788.9998779296875,6463.999450683594 4740.9998779296875,6453.999450683594 " class="fil1 str0"/>
    <polygon id="svg_17" points="5464.9998779296875,4340.999450683594 5511.9998779296875,4350.999450683594 5089.9998779296875,6463.999450683594 5041.9998779296875,6453.999450683594 " class="fil1 str0"/>
    <polygon id="svg_18" points="5765.9998779296875,4340.999450683594 5813.9998779296875,4350.999450683594 5390.9998779296875,6463.999450683594 5343.9998779296875,6453.999450683594 " class="fil1 str0"/>
    <rect id="svg_19" height="8678" width="7303" y="355.999451" x="38.999634" class="fil2"/>
   </g>
  </g>
 </g>
</svg>