<?xml version="1.0" encoding="UTF-8"?>
<!DOCTYPE svg PUBLIC "-//W3C//DTD SVG 1.1//EN" "http://www.w3.org/Graphics/SVG/1.1/DTD/svg11.dtd">
<!-- Creator: CorelDRAW X8 -->
<svg xmlns="http://www.w3.org/2000/svg" xml:space="preserve" width="210mm" height="297mm" version="1.1" style="shape-rendering:geometricPrecision; text-rendering:geometricPrecision; image-rendering:optimizeQuality; fill-rule:evenodd; clip-rule:evenodd"
viewBox="0 0 21000 29700"
 xmlns:xlink="http://www.w3.org/1999/xlink"
 aria-hidden="true"
 data-prefix="fal"
 data-icon="map-marker-alt"
 role="img">
 <defs>
  <style type="text/css">
   <![CDATA[
    .str0 {stroke:#6B7D87;stroke-width:150}
    .fil2 {fill:none}
    .fil1 {fill:#6B7D87}
    .fil0 {fill:#330066}
   ]]>
  </style>
 </defs>
 <g id="Capa_x0020_1">
  <metadata id="CorelCorpID_0Corel-Layer"/>
  <path class="fil0" d="M7484 7428c-477,0 -885,84 -1243,230 -401,164 -740,405 -1044,693 -613,581 -1069,1363 -1069,2440 0,1151 540,2020 1252,2599 581,472 1232,761 2170,761 544,0 1044,-165 1426,-336 0,0 490,-291 562,-338 133,-87 210,-154 259,-212 18,-22 69,-60 128,-122 545,-575 978,-1354 978,-2352 0,-924 -374,-1662 -861,-2228 -289,-335 -504,-511 -889,-704 -433,-217 -1052,-431 -1669,-431zm-466 334l0 172c0,182 -191,300 -354,218l-366 -183c227,-98 469,-167 720,-207l0 0zm-2562 3007c0,-444 97,-865 269,-1246 151,224 384,570 527,780 79,116 171,222 275,316l13 11c145,131 307,243 482,332 214,107 525,277 745,398 155,86 251,249 251,426l0 488c0,130 51,254 142,345 229,229 371,589 345,782l0 417c-1681,0 -3049,-1368 -3049,-3049zm3700 2978l265 -715c31,-83 50,-171 73,-257 16,-61 48,-117 94,-163 50,-51 113,-113 172,-172 134,-133 209,-314 209,-503 0,0 0,0 0,0 0,-123 -49,-241 -136,-329l-209 -208c-91,-92 -215,-143 -345,-143l-1018 0c-143,-72 -327,-488 -487,-488 -161,0 -319,-37 -463,-109l-169 -85c-61,-31 -100,-94 -100,-163 0,-78 50,-148 124,-173l476 -158c81,-27 172,-9 237,47l141 123c22,19 51,30 80,30l86 0c91,0 150,-96 109,-177l-238 -475c-8,-17 -13,-36 -13,-55 0,-33 14,-64 37,-87l152 -147c22,-23 53,-35 85,-35l137 0c32,0 63,-13 86,-36l122 -122c48,-47 48,-125 0,-172l-71 -72c-48,-47 -48,-124 0,-172l157 -158 72 -72c95,-95 95,-249 0,-345l-432 -431c39,-2 77,-6 116,-6 1192,0 2223,689 2725,1687l-198 99c-57,29 -105,72 -141,125l-299 448c-40,60 -61,130 -61,202 0,73 21,143 61,203l275 412c50,75 127,130 215,152l445 111c-164,1282 -1126,2317 -2371,2589l0 0z"/>
  <path class="fil1" d="M5771 7203c-169,0 -306,137 -306,305 0,169 137,306 306,306 168,0 305,-137 305,-306 0,-168 -137,-305 -305,-305zm0 509c-685,0 684,0 0,0zm0 -815c-338,0 -611,274 -611,611 0,246 85,315 548,985 30,44 95,44 125,0 463,-670 548,-739 548,-985 0,-337 -273,-611 -610,-611zm509 611c0,1877 0,-1741 0,0z"/>
  <path class="fil1" d="M10481 8676c-168,0 -305,138 -305,306 0,168 137,305 305,305 169,0 306,-137 306,-305 0,-168 -137,-306 -306,-306zm0 510c-684,0 684,0 0,0zm0 -815c-337,0 -611,274 -611,611 0,246 86,315 548,985 31,44 96,44 126,0 462,-670 548,-739 548,-985 0,-337 -273,-611 -611,-611zm509 611c0,1877 0,-1742 0,0z"/>
  <g id="_1597683402880">
   <polygon class="fil1 str0" points="5691,10781 5716,10786 5491,11915 5465,11910 "/>
   <path class="fil1" d="M9907 10496l-4544 0 -90 -478c-23,-122 -129,-210 -253,-210l-918 0c-71,0 -129,58 -129,129l0 86c0,71 58,129 129,129l846 0 752 4009c-111,122 -179,285 -179,463 0,380 308,688 688,688 380,0 688,-308 688,-688 0,0 0,-1 0,-1 0,-120 -32,-239 -92,-343l1560 0c-60,104 -92,223 -92,343 0,0 0,1 0,1 0,380 308,688 688,688 380,0 688,-308 688,-688 0,-193 -80,-368 -209,-493 -27,-110 -127,-195 -250,-195l-3182 0 -129 -688 3562 0c122,0 228,-86 253,-205l465 -2236c34,-161 -89,-311 -252,-311zm-3354 4128c0,190 -154,344 -344,344 -190,0 -344,-154 -344,-344 0,-190 154,-344 344,-344 190,0 344,154 344,344zm2408 344c-190,0 -344,-154 -344,-344 0,-190 154,-344 344,-344 190,0 344,154 344,344 0,190 -154,344 -344,344zm-3470 -4084l323 2020 3557 0 430 -2064 0 0 -4310 44z"/>
   <polygon class="fil1 str0" points="5978,10781 6017,10789 5670,12530 5630,12522 "/>
   <polygon class="fil1 str0" points="6271,10781 6319,10791 5897,12904 5849,12894 "/>
   <polygon class="fil1 str0" points="6573,10781 6620,10791 6198,12904 6150,12894 "/>
   <polygon class="fil1 str0" points="6874,10781 6922,10791 6499,12904 6452,12894 "/>
   <polygon class="fil1 str0" points="7175,10781 7223,10791 6801,12904 6753,12894 "/>
   <polygon class="fil1 str0" points="7477,10781 7524,10791 7102,12904 7054,12894 "/>
   <polygon class="fil1 str0" points="7778,10781 7826,10791 7403,12904 7356,12894 "/>
   <polygon class="fil1 str0" points="8079,10781 8127,10791 7705,12904 7657,12894 "/>
   <polygon class="fil1 str0" points="8381,10781 8428,10791 8006,12904 7958,12894 "/>
   <polygon class="fil1 str0" points="8682,10781 8730,10791 8307,12904 8260,12894 "/>
   <polygon class="fil1 str0" points="8983,10781 9031,10791 8609,12904 8561,12894 "/>
   <polygon class="fil1 str0" points="9285,10781 9332,10791 8910,12904 8862,12894 "/>
   <polygon class="fil1 str0" points="9586,10781 9634,10791 9211,12904 9164,12894 "/>
   <rect class="fil2" x="3859" y="6796" width="7303" height="8678"/>
  </g>
 </g>
</svg>
